<?xml version="1.0" encoding="utf-8"?>
<!-- Generator: Adobe Illustrator 15.1.0, SVG Export Plug-In . SVG Version: 6.00 Build 0)  -->
<!DOCTYPE svg PUBLIC "-//W3C//DTD SVG 1.1//EN" "http://www.w3.org/Graphics/SVG/1.1/DTD/svg11.dtd">
<svg version="1.1"
	 id="svg2" inkscape:version="0.48.2 r9819" sodipodi:docname="Ouroboros_and_Omkar_by_crookedwings_2.svg" xmlns:dc="http://purl.org/dc/elements/1.1/" xmlns:svg="http://www.w3.org/2000/svg" xmlns:rdf="http://www.w3.org/1999/02/22-rdf-syntax-ns#" xmlns:cc="http://creativecommons.org/ns#" xmlns:inkscape="http://www.inkscape.org/namespaces/inkscape" xmlns:sodipodi="http://sodipodi.sourceforge.net/DTD/sodipodi-0.dtd"
	 xmlns="http://www.w3.org/2000/svg" xmlns:xlink="http://www.w3.org/1999/xlink" x="0px" y="0px" width="600px" height="600px"
	 viewBox="0 0 600 600" enable-background="new 0 0 600 600" xml:space="preserve">
<sodipodi:namedview  id="namedview194" inkscape:pageopacity="0" inkscape:pageshadow="2" inkscape:window-width="1920" inkscape:window-height="1005" inkscape:window-x="-9" inkscape:window-y="-9" inkscape:current-layer="svg2" inkscape:window-maximized="1" gridtolerance="10" objecttolerance="10" guidetolerance="10" inkscape:cy="361.56048" bordercolor="#666666" showgrid="false" borderopacity="1" pagecolor="#ffffff" inkscape:zoom="0.89001173" inkscape:cx="424.3898">
	</sodipodi:namedview>
<g id="_x23_090909ff">
	<path id="path26" fill="#090909" d="M222.751,34.533c6.117-8.676,9.273-18.967,14.752-28.003
		c2.302,10.217,2.354,20.754-0.545,30.83c6.086-3.382,12.09-6.939,17.6-11.216c4.082-3.989,7.289-8.841,11.73-12.48
		c-1.121,8.841-3.845,17.354-6.189,25.927c13.426-0.083,26.842,0.688,40.227,1.707c4.287,0.421,8.429-1.018,12.615-1.676
		c-6.765,9.726-17.589,15.092-26.493,22.504c-11.318,8.975-24.868,14.382-38.242,19.46c-9.149,3.608-19.152,3.773-28.538,6.466
		c15.698,3.249,33.267,0.144,47.423,8.923c6.209,5.511,10.146,14.341,8.019,22.658c-4.05,12.368-15.349,20.263-26.173,26.39
		c-7.443,4.102-14.598,8.923-22.709,11.606c9.242-9.067,20.057-16.767,27.274-27.705c3.783-5.757,3.29-14.649-2.889-18.546
		c-4-1.727-8.841-2.056-12.86-0.277c-8.286,3.454-14.526,10.074-21.63,15.317c-1.357-3.012-0.38-7.792-3.496-10.023
		c-2.816-2.066-6.075,0.411-8.882,1.285c2.457,1.594,6.045,2.334,7.782,4.996c2.426,4.134,0.637,9.808-2.971,12.645
		c-4.78,2.066-10.527,0.741-15.102,3.485c-10.106,6.466-16.695,17.518-27.808,22.555c-6.466,3.434-15.03,3.917-21.116-0.524
		c-3.104-2.683,0.761-5.839,1.491-8.697c0.041-3.135-0.936-6.199-1.47-9.273c-5.85,11.123-14.352,20.632-19.903,31.931
		c-3.67,6.682-5.726,14.084-9.263,20.817c1.892-11,5.315-21.691,9.098-32.167c3.804-10.311,11.863-18.35,20.293-25.083
		c3.783,5.459,8.677,10.629,15.729,11.391c-2.437-4.945-5.541-10.835-1.521-15.893c2.591,3.711,6.662,5.757,10.496,7.936
		c7.566-10.322,12.943-22.493,14.238-35.302c0.421-4.297-1.83-9.468-6.62-9.972c-12.738-1.511-26.051-1.429-37.976-6.867
		c-0.771,0.709-1.552,1.418-2.333,2.118c0.339,3.578,0.802,7.134,1.274,10.701c-4.472-5.644-8.008-11.925-11.195-18.339
		c-1.953,4.06-1.778,8.543-0.873,12.85c-4.74-4.791-7.988-10.743-8.225-17.621c-1.666-0.822-3.341-1.634-5.006-2.446
		c0.36,16.212,8.697,30.84,17.456,43.968c-11.75-8.316-20.89-20.016-26.554-33.206c-2.724-9.602-3.855-19.573-6.179-29.267
		c17.651-9.952,35.519-22.535,56.47-23.326c-0.042,0.535-0.144,1.625-0.186,2.159c-5.15,1.655-13.23,2.21-13.724,9.118
		c-1.1,5.376,5.675,7.68,9.849,5.633c4.739-2.549,9.057-5.777,13.395-8.933c-0.463,3.187-0.915,6.384-1.11,9.602
		c12.254-3.105,24.672-5.839,37.42-5.367C209.224,48.432,217.108,41.39,222.751,34.533 M182.197,60.851
		c-3.968,1.563-7.689,3.669-11.586,5.407c5.562,0.802,10.958,2.652,16.551,3.167c4.637-1.511,8.513-4.955,12.707-7.453
		C194.122,60.769,188.035,58.774,182.197,60.851 M110.852,61.807c1.398,1.131,2.817,2.252,4.256,3.341
		c-0.083-0.76-0.257-2.302-0.339-3.063C113.463,61.992,112.157,61.899,110.852,61.807z"/>
	<path id="path28" fill="#090909" d="M306.607,49.398c5.306-5.644,13.951-1.439,20.428-1.039c17.547,2.817,35.22,9.83,53.128,6.282
		c-13.271,10.27-29.503,15.544-45.449,19.995c-18.165,4.944-37.543,1.11-54.29-6.754C289.934,62.948,298.939,56.934,306.607,49.398z
		"/>
	<path id="path30" fill="#090909" d="M362.943,67.625c3.547-1.48,6.549-4.133,10.229-5.294c11.029,0.329,21.712,3.732,31.981,7.566
		c7.956,2.673,14.37,8.245,21.701,12.141c7.803,4.225,15.595,8.492,23.499,12.532c7.247,3.588,15.513,5.089,22.153,9.869
		c7.126,6.065,10.743,15.102,17.158,21.825c3.434,4.236,8.266,6.971,11.997,10.918c4.884,5.099,11.884,7.587,16.653,12.758
		c4,6.271,4.82,13.991,8.544,20.406c3.609,6.436,9.405,11.154,15.194,15.543c-2.221-0.216-4.441-0.463-6.661-0.668
		c5.211,6.127,11.886,10.804,17.373,16.623c3.918,7.597,3.772,16.592,6.137,24.693c0.958,5.757,6.384,8.923,10.105,12.891
		c-2.989-0.863-5.932-1.861-8.872-2.848c3.218,5.397,9.365,10.044,9.1,16.932c0.442,8.46-0.865,16.962,0.146,25.403
		c2.034,8.193,6.465,15.513,9.621,23.295c-2.109-1.728-4.206-3.454-6.28-5.17c1.777,7.658,3.968,15.214,6.045,22.802
		c3.576,11.544-9.541,20.539-7.443,32.104c0.771,4.504,2.16,8.853,3.382,13.242c-1.306-1.101-2.6-2.221-3.885-3.342
		c1.348,3.99,2.674,8.03,2.765,12.297c-3.237,9.908-10.948,17.65-14.341,27.52c-1.993,7.617-1.882,15.555-2.56,23.357
		c-1.43-2.251-2.774-4.556-4.123-6.837c-2.024,10.045-3.598,20.223-6.609,30.029c-3.784,8.451-13.026,12.244-19.03,18.752
		c-6.372,8.923-9.745,19.45-14.012,29.421c-4.317,9.509-15.35,11.543-23.491,16.573c-10.683,5.507-14.361,17.753-22.186,26.06
		c-6.425,4.359-14.782,4.339-21.928,6.939c-12.571,2.652-16.458,18.287-28.836,21.396c-8.85,2.084-18.102,2.352-26.779,5.25
		c-3.907,1.8-7.155,4.709-10.765,7.012c0.461-2.006,0.975-4.01,1.479-5.993c-7.401,3.833-14.68,7.967-22.296,11.358
		c-8.553,1.439-17.324,0.701-25.957,1.008c-8.996-1.11-16.531,4.462-24.539,7.483c1.758-2.458,3.547-4.871,5.305-7.331
		c-7.157,2.057-14.105,5.068-21.497,6.198c-9.149,0.175-16.695-5.633-25.124-8.233c-4.74-1.986-9.756-0.165-14.311,1.314
		c0.257-0.74,0.514-1.472,0.781-2.2c-5.212,0.392-10.702,2.096-15.811,0.309c-10.589-3.527-18.916-11.739-29.494-15.226
		c-6.158,0.028-12.326,1.313-18.484,0.277c-9.077-4.514-13.744-14.31-22.041-19.817c-5.921-2.652-12.922-2.028-18.668-5.12
		c-8.759-5.941-13.086-16.243-21.126-22.926c-7.834-3.938-17.949-5.797-22.997-13.726c-3.279-8.427-7.114-16.693-12.233-24.179
		c-3.125-3.269-7.7-4.616-11.206-7.401c-15.05-13.517-10.979-38.026-26.749-51.113c0.966-0.135,1.922-0.258,2.889-0.361
		c-5.88-11.453-13.662-21.98-17.61-34.356c-2.396-7.392-6.127-14.301-11.216-20.172c3.135,1.019,6.199,2.221,9.273,3.414
		c-3.187-5.345-6.949-10.455-9.201-16.284c-2.868-10.764,0.792-21.773,0.555-32.619c-0.411-7.361-4.39-13.529-8.039-19.625
		c3.485,2.036,6.98,4.072,10.465,6.117c-2.128-4.976-5.5-9.726-5.099-15.4c-0.586-11.791,7.257-21.588,9.19-32.876
		c2.364-7.587,0.802-15.585-0.247-23.233c3.136,3.969,6.096,8.081,9.16,12.11c-0.421-7.844-1.151-16.294,2.725-23.46
		c5.027-9.365,9.92-18.813,14.68-28.332c5.007-11.688,14.506-20.53,21.764-30.759c2.765-4.317,5.027-8.923,7.535-13.385
		c0.226,9.499,5.233,17.518,8.769,25.989c1.923,7.72,3.229,15.821,2.58,23.789c-3.608,11.915-11.708,21.711-16.345,33.164
		c-1.049,7.71-1.069,15.615-3.321,23.13c-2.518,8.265-5.941,16.191-9.077,24.23c-3.649-3.146-7.063-7.546-5.161-12.789
		c4.061-7.864,10.558-14.804,12.048-23.84c1.634-5.326,1.501-10.897,1.47-16.397c0.74,0.658,1.48,1.316,2.22,1.984
		c-0.503-5.088-2.529-11.092,1.861-15.112c5.891-7.474,12.563-14.752,15.184-24.148c-5.644,10.167-13.55,18.679-21.373,27.191
		c-2.508-5.531-5.891-10.856-6.826-16.932c0.915-4.205,4.667-7.155,6.445-11c4.369-7.7,5.428-16.541,6.004-25.197
		c-4.78,6.724-9.386,13.58-13.55,20.705c-1.223,2.241-2.56,4.677-2.302,7.319c1.747,13.601,10.393,25.403,10.825,39.291
		c1.563,14.917-9.108,26.75-16.52,38.5c-5.511-4.935-12.254-10.712-11.134-18.978c1.953-12.861,8.625-24.354,11.277-37.029
		c1.511-6.22,2.447-12.583,2.868-18.977c-5.459,8.583-8.985,18.165-12.768,27.551c-3.546,8.964-6.621,18.412-7.042,28.034
		c6.507,12.655,16.346,23.418,22.154,36.515c-0.432-2.673-0.915-5.325-1.378-7.988c5.736,7.32,7.052,17.158,6.035,26.174
		c-1.923,8.963-3.681,17.959-5.542,26.943c-3.228-2.867-5.931-6.394-7.319-10.506c0.462-8.091,5.448-14.918,7.052-22.752
		c-4.883,7.443-9.16,15.38-11.092,24.158c-6.25-4.396-13.385-8.674-15.78-16.458c-5.541-16.592,1.151-34.038-0.072-51.011
		c-4.441,15.605-7.34,32.002-5.449,48.234c-0.103,4.862,4.462,7.197,7.34,10.252c6.826,5.807,13.169,12.142,19.964,17.99
		c3.742,3.136,8.605,5.293,10.918,9.818c7.71,13.457,8.08,29.329,8.337,44.41c-3.68-3.486-9.611-6.23-9.632-11.987
		c0.206-11.204,1.882-22.791-2.755-33.379c2.734,13.393,1.418,26.932,0.699,40.431c-5.017-2.179-10.023-4.422-14.814-7.084
		c-3.578-1.945-5.274-5.859-7.309-9.17c-6.158-10.642-7.71-23.05-9.047-35.065c-0.072-5.849-2.683-11.104-5.397-16.097
		c-0.164,16.528,0.638,33.431,6.025,49.209c1.182,3.014,2.169,6.653,5.345,8.159c12.398,6.747,27.181,10.849,36.053,22.557
		c8.08,8.668,7.216,21.125,8.594,32.147c-10.271-2.602-22.689-4.111-28.929-13.868c-5.901-11.298-6.322-26.187-17.641-34.172
		c4.965,11.565,9.632,23.255,13.498,35.24c1.295,3.146,2.261,7.331,6.014,8.358c11.792,4.297,24.91,4.863,35.806,11.525
		c12.593,7.02,14.197,22.802,22.051,33.772c-9.006-0.3-19.111,1.727-26.77-4.392c-11.545-8.87-17.25-23.458-29.166-31.971
		c5.593,13.856,14.105,26.297,22.833,38.336c13.848,0.04,27.715-0.486,41.542,0.542c9.149,0.299,18.381,4.761,23.347,12.636
		c3.875,5.501,6.404,11.801,9.622,17.703c-10.743,0.616-22,2.447-32.424-1.028c-9.077-4.945-15.132-13.693-23.079-20.068
		c-4.605-2.704-9.849-4.152-15.091-5.006c6.292,8.809,12.912,17.527,20.961,24.825c3.146,2.92,7.751,3.084,11.74,3.732
		c16.644,1.233,33.462,0.741,49.972-1.799c-1.563-0.556-3.125-1.1-4.677-1.645c17.003-3.373,31.807,8.11,42.951,19.49
		c-5.49,0.934-11.01,1.635-16.551,2.179c-2.231-7.967-6.58-15.729-14.485-19.245c6.744,5.871,11.905,13.271,14.187,21.948
		c-7.124,2.734-14.238,5.634-21.722,7.238c-13.169-1.705-20.899-13.921-32.773-18.493c-6.682-2.931-13.766-4.904-20.92-6.22
		c11.781,11.914,25.084,22.319,39.384,31.058c1.902,1.148,4.184,2.198,6.415,1.345c13.344-4.379,26.235-10.3,39.959-13.404
		c12.408-2.56,23.387,4.317,33.503,10.403c0.041,0.596,0.134,1.799,0.175,2.407c-8.8,3.69-16.993,8.696-25.752,12.429
		c-14.578,4.573-27.376-6.446-41.707-6.845c5.788,5.242,13.333,7.792,20.231,11.184c5.027,2.168,10.167,5.202,15.903,4.369
		c7.422-3.528,13.303-9.807,21.044-12.769c11.236-4.873,23.583-9.427,35.97-5.951c6.158,2.188,11.679,5.819,17.405,8.913
		c-6.045,6.702-13.066,12.511-20.571,17.517c-3.855,2.558-8.717,1.759-13.045,1.181c-11.411-2.014-22.874-3.883-34.429-4.729
		c11.853,4.78,24.21,8.214,36.752,10.63c1.819-0.946,4.924,1.945,6.867,0.349c13.96-9.631,26.564-23.314,44.296-25.421
		c9.335-2.508,19.173,0.207,26.956,5.562c-5.077,6.361-8.966,14.246-15.748,18.872c-14.804,2.162-30.275-1.941-44.75,3.341
		c15.071,1.637,30.389,3.301,45.501,1.462c8.142-6.787,13.323-16.748,21.833-23.294c7.618-6.147,16.366-11.607,26.278-12.781
		c7.804-0.945,15.78-0.894,23.573,0.257c-0.854,6.468-1.604,13.858-6.888,18.444c-6.332,6.208-15.483,6.999-23.531,9.497
		c-5.736,1.479-11.247,3.711-16.706,5.981c13.55-1.582,27.171-4.029,40.029-8.644c6.199-1.749,5.789-9.405,8.163-14.147
		c4.07-17.003,15.173-31.734,29.206-41.871c8.183-5.975,16.407-12.357,26.121-15.656c-0.626,5.489-4.194,10.063-6.198,15.111
		c-5.12,1.594-10.332,3.002-15.122,5.467c6.548-0.974,12.953-2.632,19.45-3.905c-2.548,10.136-3.845,22.091-12.717,28.979
		c-8.009,6.312-17.045,11.122-25.177,17.26c11.688-3.742,22.432-9.807,33.268-15.46c2.939-10.784,4.872-21.783,7.34-32.672
		c1.84-8.101,6.221-15.883,13.487-20.283c7.506-4.689,15.595-8.349,23.501-12.297c-0.433,7.875,0.719,16.438-2.725,23.791
		c-10.443,13.825-24.437,24.426-35.631,37.605c11.555-6.714,22.536-14.465,32.619-23.235c5.654-4.029,4.481-11.76,5.817-17.722
		c0.792-11.637,2.806-23.131,5.923-34.356c-1.666,2.61-3.29,5.262-5.089,7.792c3.834-20.077,12.079-40.578,28.435-53.675
		c0.011,6.023-0.483,12.009-0.812,18.021c-9.16,7.525-18.371,15.637-22.874,26.924c7.412-11.103,17.148-20.21,27.767-28.199
		c1.357,9.952,4.854,21.013-0.616,30.306c-6.497,15.216-19.101,26.503-27.694,40.422c14.239-11.452,25.598-25.927,36.341-40.586
		c-2.159-16.129-7.35-31.798-8.429-48.061c2.745-16.078,8.707-31.673,16.9-45.768c2.23,5.974,3.762,12.185,5.766,18.237
		c-10.742,7.895-18.616,19.604-21.249,32.711c5.664-12.512,12.994-24.673,24.395-32.733c6.6,8.161,6.98,19.563,4.431,29.381
		c-2.909,10.928-8.348,20.889-13.015,31.119c6.898-9.335,12.583-19.512,17.365-30.07c1.222-3.69,3.854-7.555,2.436-11.564
		c-4.779-14.269-10.712-28.292-13.417-43.156c0.031,5.058,0.329,10.157,0.175,15.227c-7.628-18.237-5.973-39.044,1.729-56.952
		c0.771-0.051,2.303-0.151,3.073-0.205c2.086,4.638,6.764,9.067,4.946,14.607c-3.372,5.347-7.474,10.352-9.406,16.471
		c4.432-6.447,9.006-12.84,14.649-18.31c12.717,8.717,9.417,25.803,10.683,39.085c2.056-7.75,3.546-15.636,4.688-23.563
		c-10.683-13.075-21.096-26.574-28.333-41.901c-5.9-15.462-8.975-32.044-8.553-48.616c4.503,4.173,8.769,8.625,13.684,12.356
		c-4.481,14.536-5.521,30.892,0.38,45.182c-1.892-15.328-5.407-32.022,2.569-46.271c5.748,4.749,12.8,8.964,16.214,15.811
		c1.646,15,2.241,30.183,5.799,44.924c1.347-15.348,3.177-31.437-1.173-46.374c-9.333-10.188-21.343-17.559-30.471-27.962
		c-8.296-11.987-9.397-27.263-6.734-41.275c6.23,2.406,12.202,5.438,18.311,8.163c-10.579-8.687-23.243-14.258-34.037-22.617
		c-9.357-7.761-10.363-20.426-14.62-31.036c11.278-0.925,21.957,2.92,31.806,7.967c-2.6-3.217-6.219-5.375-10.146-6.6
		c-9.9-3.146-20.159-4.976-30.152-7.761c-6.168-1.686-11.751-4.883-17.65-7.258c5.735,4.379,12.623,6.815,18.74,10.559
		c-14.64-2.056-28.714-9.283-38.243-20.684c-5.695-6.826-10.938-14.073-17.486-20.139c6.785,0.503,13.673,2.128,19.543,5.675
		c5.191,4.009,6.158,11.02,9.621,16.284c-1.746-6.559-3.967-12.984-7.175-18.978c9.89-0.761,19.903-1.388,29.721,0.535
		c8.892,5.232,15.739,13.138,23.777,19.502c-4.934-6.97-9.889-14.208-16.735-19.44c-20.406-7.073-44.327-2.951-62.895-15.349
		c-8.522-8.378-16.088-17.888-26.657-23.871c10.783-2.437,22.01-4.678,33.102-3.043c14.258,5.027,25.083,16.161,37.389,24.529
		c-6.652-8.358-15.852-14.084-24.725-19.78c-5.613-3.413-11.359-7.206-18.154-7.597c-19.338-1.655-38.54,6.61-57.815,2.323
		c-13.685-1.666-24.322-10.948-35.313-18.351C348.52,72.848,356.147,71.316,362.943,67.625 M467.268,155.357
		c-0.453,1.429,0.052,1.933,1.49,1.491C469.2,155.409,468.706,154.904,467.268,155.357 M551.268,230.69
		c2.323,3.773,4.842,7.412,7.381,11.051C558.124,236.972,555.771,232.716,551.268,230.69 M68.117,299.671
		C65.752,303.207,72.137,300.483,68.117,299.671 M175.935,505.984c-0.37,1.852,3.423,1.852,3.063,0
		C178.424,504.874,176.511,504.874,175.935,505.984 M401.31,530.812c4.515-2.405,8.985-4.894,13.271-7.688
		C409.894,525.189,405.277,527.543,401.31,530.812z"/>
	<path id="path32" fill="#090909" d="M279.211,69.456c18.011,9.262,39.023,10.772,58.567,6.044
		c-12.472,7.289-27.347,9.355-41.574,9.776c-11.401,0.555-22.699-2.004-33.411-5.736C268.314,76.261,273.969,73.187,279.211,69.456z
		"/>
	<path id="path34" fill="#090909" d="M339.813,76.857c9.049,7.772,19.668,13.878,31.304,16.788
		c7.938,1.696,16.068,2.087,24.148,2.827c-25.043,5.593-51.504-0.339-73.843-12.295C327.692,82.121,333.984,80.013,339.813,76.857z"
		/>
	<path id="path36" fill="#090909" d="M246.212,86.356c5.243-1.521,10.311-4.564,15.903-4.472c7.453,1.162,14.567,3.917,22,5.294
		c-6.959,1.45-13.991,2.755-21.105,3.084C257.294,89.563,251.834,87.456,246.212,86.356z"/>
	<path id="path38" fill="#090909" d="M303.719,89.255c6.271-1.213,12.984-3.217,19.338-1.131c5.069,1.717,9.961,3.866,14.885,5.963
		C326.388,94.005,314.657,93.275,303.719,89.255z"/>
	<path id="path40" fill="#090909" d="M267.47,94.066c5.305,0.041,10.764-0.617,15.893,1.182c4.771,1.162,9.047,4.05,13.991,4.554
		c3.29-1.377,5.819-4.451,9.561-4.811c10.229-0.638,21.312,0.421,30.244,5.87c2.345,1.573,5.038,4.379,3.753,7.433
		c-2.323,8.492-9.551,14.135-16.921,18.186c-13.304,7.967-29.104,9.643-44.205,11.473c4.965-5.089,12.552-5.099,18.422-8.584
		c5.53-2.714,9.684-7.515,13.004-12.593c1.604-3.834,0.945-8.152,1.049-12.224c-13.014,15.842-29.781,29.381-49.16,36.495
		c8.44-9.252,16.079-20.838,14.526-34.027C275.367,101.961,270.977,98.229,267.47,94.066 M299.905,100.831
		c3.177,1.5,6.57,2.498,10.044,3.002C306.722,102.465,303.359,101.438,299.905,100.831z"/>
	<path id="path42" fill="#090909" d="M150.491,95.731c10.568,1.388,21.784,0.576,31.684,5.12
		c-2.437,5.572-7.916,8.573-12.501,12.161c-17.97,13.118-34.192,28.579-48.06,45.953c-0.638-10.434-0.062-21.958,7.525-29.998
		c8.749-9.139,18.731-17.26,25.66-27.993c-2.179-0.987-4.359-1.943-6.548-2.868C148.99,97.314,149.741,96.523,150.491,95.731z"/>
	<path id="path44" fill="#090909" d="M339.392,98.939c7.68,1.553,16.128,2.046,22.679,6.816c5.562,3.649,11.844,8.954,11.235,16.407
		c-3.288,7.463-9.703,14.577-18.152,15.832c-12.625,1.614-25.598,2.354-38.05-0.833c8.009-4.133,16.778-7.299,23.143-13.981
		c4.175-3.783,7.043-9.324,6.179-15.122C345.087,104.367,341.808,101.899,339.392,98.939z"/>
	<path id="path46" fill="#090909" d="M388.983,100.348c6.322-0.206,13.354-3.105,19.348,0.257
		c7.483,3.382,11.863,10.856,17.712,16.253c5.933,6.168,14.124,9.067,21.659,12.686
		C424.769,128.104,407.354,112.128,388.983,100.348z"/>
	<path id="path48" fill="#090909" d="M371.732,102.609c4.854-0.144,9.767-0.134,14.545,0.749c6.333,4.226,12.788,8.43,18.495,13.508
		C393.609,112.499,380.091,112.16,371.732,102.609z"/>
	<path id="path50" fill="#090909" d="M145.865,137.336c9.972-12.285,22.647-22,35.528-31.036c-0.688,3.989-1.305,8.841-4.975,11.339
		c-9.808,7.063-18.679,15.41-25.752,25.249C149.011,141.088,147.419,139.227,145.865,137.336z"/>
	<path id="path52" fill="#090909" d="M370.9,108.058c10.105,4.688,22.915,9.078,27.027,20.612c2.065,6.815-3.599,13.118-9.829,14.67
		c-11.554,2.652-23.768,2.241-35.099-1.213c7.517-3.608,16.366-5.335,22.145-11.802c3.137-3.752,4.502-9.16,2.94-13.857
		C375.938,113.455,373.337,110.833,370.9,108.058z"/>
	<path id="path54" fill="#090909" d="M230,118.914c3.526-3.208,7.597-6.559,12.799-5.901c4.976-0.175,8.666,4.421,9.715,8.892
		c1.315,4.493-1.501,8.882-4.02,12.358c-8.204,9.96-19.389,16.859-27.921,26.502c-3.67,4.667-5.993,10.208-8.81,15.399
		c-0.308-6.404,1.336-12.86,5.068-18.103c8.142-11.083,21.022-17.282,29.751-27.809c3.167-4.379,3.639-11.586-1.08-15.04
		C239.929,114.267,235.037,117.197,230,118.914z"/>
	<path id="path56" fill="#090909" d="M237.359,118.934c4.965-4.082,11.535,2.817,8.584,7.546c-1.521,3.187-5.664,3.763-8.409,5.181
		C236.538,127.631,232.292,121.638,237.359,118.934z"/>
	<path id="path58" fill="#090909" d="M227.029,134.91c-3.763-4.04,0.288-8.903,3.094-12.1c0.555,2.642,0.483,5.664,2.18,7.885
		c2.21,1.675,5.253,1.48,7.885,2.015C237.103,136.359,230.329,140.358,227.029,134.91z"/>
	<path id="path60" fill="#090909" d="M400.302,122.687c7.698,4.739,15.719,10.002,20.52,17.887
		c2.271,5.099,5.292,12.84,0.543,17.436c-5.264,4.307-12.717,4.41-19.143,4.235c-10.227-2.169-19.532-7.104-29.07-11.195
		c1.069-1.1,2.159-2.189,3.236-3.279c-9.396,1.039-19.142,2.992-26.297,9.643c1.051-2.991,1.45-6.877,4.709-8.378
		c11.812-7.392,25.351,2.21,37.925-1.151c6.98-1.234,11.297-7.659,15.11-13.036C405.463,130.715,402.861,126.706,400.302,122.687z"
		/>
	<path id="path62" fill="#090909" d="M306.885,135.022c8.842-1.264,16.693-5.644,24.568-9.54
		c-6.137,5.243-13.015,9.744-20.631,12.49c-11.413,4.513-24.858,5.87-33.617,15.317c1.727-4.791,4.297-9.653,8.852-12.306
		C292.194,136.729,299.894,136.76,306.885,135.022z"/>
	<path id="path64" fill="#090909" d="M206.323,141.016c2.838-4.277,5.932-8.368,8.543-12.789c0.463,2.878,0.874,5.747,1.336,8.625
		C212.935,138.312,209.644,139.69,206.323,141.016z"/>
	<path id="path66" fill="#090909" d="M427.452,131.383c5.099,2.478,10.467,4.678,14.988,8.152c3.62,4.873,6.438,10.291,9.201,15.688
		C441.762,149.292,432.951,141.674,427.452,131.383z"/>
	<path id="path68" fill="#090909" d="M97.93,154.257c6.815-9.458,16.962-15.708,26.667-21.825c-1.974,3.855-4.205,7.618-5.5,11.781
		c-1.223,7.71,0.905,15.739-1.922,23.212c-2.365,5.921-6.713,10.691-10.661,15.595c-4.894-3.238-6.98-8.913-8.985-14.156
		C95.729,164.229,95.103,158.626,97.93,154.257z"/>
	<path id="path70" fill="#090909" d="M425.376,136.75c9.015,6.527,16.89,15.389,20.591,26.019
		c3.311,8.358-4.421,19.502-13.891,16.86c-11.636-0.936-21.7-7.381-30.502-14.557c6.631,0.854,13.304,1.501,20.018,1.316
		c4.667-0.206,9.654-3.053,10.537-7.967C433.805,150.422,428.686,143.493,425.376,136.75z"/>
	<path id="path72" fill="#090909" d="M196.959,140.307c3.835-1.696,7.093,0.678,10.27,2.272c-0.781,3.927-1.645,7.854-2.622,11.75
		c-1.018-2.775-2.015-5.469-3.176-8.162c-10.671,5.15-18.494,14.988-29.71,19.152c-4.225,1.182-8.563,1.901-12.942,2.138
		c7.083-4.04,15.328-6.332,20.982-12.511C185.518,150.197,189.485,142.641,196.959,140.307z"/>
	<path id="path74" fill="#090909" d="M328.165,141.973c7.523-2.139,15.408-1.594,23.108-1.05c-11.8,3.948-24.539,4.451-35.857,9.931
		C319.458,147.657,323.139,143.596,328.165,141.973z"/>
	<path id="path76" fill="#090909" d="M234.461,156.221c8.759-5.654,18.032-10.445,27.15-15.482
		c-8.008,10.373-19.491,17.178-29.278,25.649c-4.01,3.413-5.5,8.635-8.029,13.066C225.549,171.065,227.1,161.515,234.461,156.221z"
		/>
	<path id="path78" fill="#090909" d="M450.428,161.093c6.385,5.911,11.895,13.077,14.876,21.291
		c0.37,4.935,2.057,10.917-1.255,15.246c-2.281,3.279-6.753,3.947-10.443,3.66c-11.905-1.552-22.71-7.803-31.705-15.502
		c9.067,0.74,18.947,3.001,27.161-2.118C456.648,177.891,452.937,168.403,450.428,161.093z"/>
	<path id="path80" fill="#090909" d="M109.536,182.322c4.328-6.219,8.008-12.84,12.018-19.255
		c-2.601,13.673-7.422,27.5-16.613,38.191C103.594,194.627,105.588,187.719,109.536,182.322z"/>
	<path id="path82" fill="#090909" d="M464.039,168.002c4.514,2.857,9.468,5.068,13.773,8.245c3.32,5.51,6.016,11.38,8.666,17.241
		c-4.245-3.053-8.398-6.22-12.54-9.396C467.956,180.8,466.773,173.615,464.039,168.002z"/>
	<path id="path84" fill="#090909" d="M479.069,172.885c6.672,1.84,14.331,2.323,19.912,6.733
		c4.287,7.083,4.956,16.068,10.229,22.729c3.722,6.364,10.271,10.034,15.524,14.938c-9.92-2.087-17.879-8.995-24.51-16.315
		C492.135,192.458,485.042,182.99,479.069,172.885z"/>
	<path id="path86" fill="#090909" d="M468.315,182.415c8.833,9.211,14.393,21.547,14.744,34.346
		c-0.649,5.048-5.982,8.708-11.052,7.351c-14.321-2.292-25.28-12.686-35.384-22.339c7.739,2.899,15.513,6.621,23.942,6.569
		c5.911-0.164,11.832-5.706,10.228-12.018C470.413,191.615,469.128,187.051,468.315,182.415z"/>
	<path id="path90" fill="#090909" d="M109.721,235.008c5.582-8.265,9.622-17.723,16.962-24.693
		c-6.826,14.825-9.787,30.975-13.262,46.806c-1.028,5.767-1.1,11.658-1.491,17.507c-0.565-0.205-1.696-0.596-2.262-0.801
		c-1.028-6.744-2.045-13.488-3.063-20.221c-4.78,7.052-8.995,14.464-13.899,21.444C95.617,260.708,101.795,247.242,109.721,235.008z
		"/>
	<path id="path92" fill="#090909" d="M485.813,210.13c7.309,9.725,13.199,22.174,9.919,34.562c-2.097,6.456-10.24,8.06-15.956,5.685
		c-10.887-4.462-18.997-13.631-25.361-23.244c8.738,3.587,19.358,10.177,28.754,5.026
		C490.048,227.144,485.977,217.172,485.813,210.13z"/>
	<path id="path94" fill="#090909" d="M497.666,211.323c3.938,3.927,8.954,6.949,12.306,11.442c1.994,9.92,4.399,19.738,6.857,29.556
		c-3.712-6.147-7.32-12.429-12.121-17.795c-2.138-2.899-5.151-5.367-6.32-8.882C497.841,220.883,497.717,216.103,497.666,211.323z"
		/>
	<path id="path98" fill="#090909" d="M511.318,215.743c5.768,1.82,11.422,4.02,17.057,6.23c0.092,7.175-0.124,14.382,0.543,21.537
		c1.101,8.163,4.905,15.472,7.793,23.069c-8.336-9.15-13.909-20.293-19.522-31.19C514.021,229.262,512.531,222.477,511.318,215.743z
		"/>
	<path id="path100" fill="#090909" d="M76.021,295.292c7.453-24.426,15.677-49.427,32.321-69.36
		c-2.775,8.748-8.358,16.243-11.74,24.744c-5.397,14.012-10.671,28.548-10.558,43.784c0.957,6.138-2.827,11.215-5.356,16.407
		C78.983,305.757,75.98,300.751,76.021,295.292z"/>
	<path id="path102" fill="#090909" d="M499.383,235.122c5.939,10.465,8.202,22.678,7.05,34.613
		c-0.555,4.143-3.575,7.792-7.564,9.067c-3.885,1.471-8.03-0.576-11.359-2.437c-8.779-5.654-14.505-14.742-18.031-24.384
		c6.238,4.297,13.784,10.547,21.874,6.908C501.85,255.466,499.353,243.51,499.383,235.122z"/>
	<path id="path104" fill="#090909" d="M115.725,279.707c-1.356-13.384-0.124-27.119,4.935-39.64
		c0.031,8.337-0.206,16.685,0.185,25.032c5.089-6.034,8.255-13.292,11.617-20.344C128.585,256.885,125.913,271.051,115.725,279.707z
		"/>
	<path id="path108" fill="#090909" d="M518.915,257.46c3.475,6.518,8.872,12.634,9.106,20.334c0.536,6.929,0.71,13.889,0.917,20.838
		c-3.487-7.052-6.733-14.228-9.573-21.558C518.587,270.568,518.926,263.999,518.915,257.46z"/>
	<path id="path110" fill="#090909" d="M89.572,339.178c-3.3-27.715,1.737-56.736,15.996-80.886
		c-0.946,24.683-2.282,49.438,0.154,74.09c-3.187-6.383-5.973-13.025-10.393-18.698c-2.375,8.316-3.609,16.859-3.969,25.494
		C90.918,339.178,90.014,339.178,89.572,339.178z"/>
	<path id="path112" fill="#090909" d="M513.035,262.487c3.32,9.674,4.083,20.314,2.036,30.337
		c-1.42,5.593-3.794,11.586-8.935,14.752c-5.366,2.632-11.121-0.226-14.596-4.369c-6.21-7.432-10.691-16.438-12.572-25.957
		c7.134,4.904,15.852,14.546,25.31,9.961C512.429,281.732,511.76,270.989,513.035,262.487z"/>
	<path id="path114" fill="#090909" d="M111.129,287.489c1.994,1.203,3.958,2.478,5.911,3.763c0.895,9.961,1.686,19.954,1.778,29.967
		C115.571,310.146,113.246,298.828,111.129,287.489z"/>
	<path id="path116" fill="#090909" d="M107.542,289.277c3.105,7.69,3.876,16.067,6.168,24.005
		c4.194,11.739,1.059,24.405,1.768,36.587C110.811,330.05,107.552,309.694,107.542,289.277z"/>
	<path id="path118" fill="#090909" d="M512.356,314.804c3.731-5.204,4.986-11.597,7.258-17.477
		c1.172,10.959,1.244,23.84-6.497,32.64c-3.031,4.359-8.85,8.604-14.329,6.179c-6.447-2.54-9.159-9.407-11.472-15.391
		c-2.046-6.455-3.794-13.055-4.432-19.812c3.619,4.801,6.66,10.096,11.08,14.246C499.27,318.937,507.432,319.46,512.356,314.804z"/>
	<path id="path120" fill="#090909" d="M529.143,310.918c1.747,5.438,4.533,10.865,4.574,16.654
		c-2.334,6.373-4.912,12.665-6.331,19.348c-1.05-7.69-4.102-15.338-2.633-23.195C525.854,319.348,527.633,315.163,529.143,310.918z"
		/>
	<path id="path122" fill="#090909" d="M109.824,399.185c-15.472-21.743-16.037-50.169-14.269-75.694
		c5.562,12.614,12.233,24.693,17.63,37.378c4.791,11.029,11.7,21.226,14.804,32.959c-6.209-6.578-10.723-15.667-19.471-19.224
		C107.922,382.838,108.702,391.032,109.824,399.185z"/>
	<path id="path124" fill="#090909" d="M488.455,358.731c-5.521-9.047-4.071-20.046-3.395-30.102
		c2.335,7.261,4.092,17.601,12.573,20.057c2.744,1.183,5.952,0.597,8.275-1.243c6.198-4.194,7.688-11.81,11.073-17.99
		c-0.618,11.164-2.675,23.253-10.784,31.634C501.634,366.904,491.672,365.032,488.455,358.731z"/>
	<path id="path126" fill="#090909" d="M82.098,333.605c2.58,4.462,5.726,8.716,7.412,13.632c0.792,5.573-0.381,11.165-1.049,16.695
		c-0.586-0.093-1.769-0.268-2.354-0.35c-2.056-6.263-5.182-12.109-7.145-18.402C79.076,341.151,81.019,337.44,82.098,333.605z"/>
	<path id="path128" fill="#090909" d="M479.85,384.812c-2.086-9.189-0.092-18.616,2.735-27.427
		c1.879,6.333,3.288,14.988,10.671,17.146c8.808,2.58,13.848-6.672,18.955-12.089c-2.529,9.447-6.569,18.998-13.766,25.823
		c-2.849,1.943-6.116,4.194-9.715,4.02C484.949,391.247,481.495,388.38,479.85,384.812z"/>
	<path id="path130" fill="#090909" d="M514.783,372.424c2.344-4.297,5.963-7.698,9.438-11.082c0.637,4.143,1.181,8.316,1.746,12.481
		c-6.384,6.537-10.988,14.464-15.862,22.124C511.606,388.091,512.87,380.186,514.783,372.424z"/>
	<path id="path132" fill="#090909" d="M470.896,422.272c-6.219-13.446-0.577-28.341,4.391-41.191
		c1.141,5.355,0.063,11.678,3.147,16.509c3.113,1.914,7.196,5.677,11.062,3.373c4.02-2.487,7.073-6.22,10.537-9.377
		C494.16,404.644,485.31,417.924,470.896,422.272z"/>
	<path id="path134" fill="#090909" d="M114.193,387.073c16.973,12.057,30.069,28.877,40.576,46.683
		c-5.624-2.89-11.185-5.994-17.24-7.938c-0.093,6.404,1.161,12.676,2.703,18.866C126.95,428.184,115.6,408.673,114.193,387.073z"/>
	<path id="path136" fill="#090909" d="M75.971,390.631c6.281,4.204,12.676,8.655,17.302,14.741
		c5.633,8.769,9.92,18.382,13.313,28.229c-5.5-0.204-11.544-2.476-14.423-7.391c-2.313-6.753-2.221-14.216-5.099-20.806
		C84.154,399.923,79.95,395.329,75.971,390.631z"/>
	<path id="path138" fill="#090909" d="M96.141,392.717c4.985,5.13,9.838,10.425,15.513,14.813c0.73,5.451,1.573,10.906,2.447,16.346
		c-5.099-4.854-10.435-9.51-14.948-14.906C97.467,403.758,96.757,398.187,96.141,392.717z"/>
	<path id="path140" fill="#090909" d="M493.832,415.293c3.392-3.835,7.145-7.383,10.887-10.889
		c-0.029,5.934,0.586,11.927-0.063,17.856c-5.776,5.223-12.306,9.695-17.373,15.677
		C489.761,430.477,491.437,422.757,493.832,415.293z"/>
	<path id="path142" fill="#090909" d="M451.426,426.602c3.114-6.24,6.198-12.583,10.486-18.127
		c-0.135,6.314-3.661,14.896,2.815,19.255c6.6,4.432,13.476-2.138,19.686-4.461c-7.002,7.813-14.002,15.954-22.985,21.559
		c-3.62,2.086-9.602,3.834-12.15-0.679C447.118,438.443,448.691,431.854,451.426,426.602z"/>
	<path id="path144" fill="#090909" d="M94.332,432.707c5.572,2.54,10.907,5.603,15.801,9.295
		c9.458,7.615,15.225,18.637,23.84,27.078c-3.464,0.369-7.299,2.919-10.455,0.7c-8.595-7.021-9.756-19.101-17.065-27.122
		C102.597,439.112,98.177,436.253,94.332,432.707z"/>
	<path id="path146" fill="#090909" d="M423.885,468.359c0.206-14.7,11.052-25.576,20.241-35.752
		c-0.585,6.722-5.368,16.498,2.488,20.436c8.061,3.506,14.968-3.352,21.723-6.774c-7.854,10.547-19.604,17.857-32.014,21.846
		C432.335,470.003,428.028,468.586,423.885,468.359z"/>
	<path id="path148" fill="#090909" d="M143.677,435.175c17.086,0.976,30.79,13.332,40.813,26.215
		c-5.469-0.926-10.969-1.771-16.469-2.438c-0.093,3.63-1.769,7.36-0.391,10.887c1.018,3.004,2.529,5.809,3.927,8.658
		C158.604,467.219,145.733,452.948,143.677,435.175z"/>
	<path id="path150" fill="#090909" d="M122.355,437.827c5.305,3.287,10.784,6.321,15.873,9.951
		c2.539,5.892,4.533,12.06,6.836,18.083c-5.469-4.729-11.956-7.997-17.744-12.224C124.977,448.672,123.99,443.09,122.355,437.827z"
		/>
	<path id="path152" fill="#090909" d="M461.818,459.519c4.391-3.681,9.521-6.361,14.352-9.407
		c-1.904,5.778-3.855,11.527-5.52,17.384c-5.491,3.074-10.816,6.426-16.172,9.717C456.895,471.32,458.56,465.018,461.818,459.519z"
		/>
	<path id="path154" fill="#090909" d="M399.355,490.801c-2.806-16.005,11.513-28.063,22.165-37.686
		c-1.789,6.763-7.659,16.922,0.76,21.155c6.508,0.194,12.962-2.488,19.47-3.444C430.721,482.33,415.855,491.489,399.355,490.801z"/>
	<path id="path156" fill="#090909" d="M465.488,477.663c5.397-5.14,10.188-11.197,16.819-14.844
		c-1.593,6.218-3.229,12.581-6.396,18.205c-6.105,6.24-14.803,8.913-21.711,14.115c-4.194,2.723-6.867,7.042-10.126,10.702
		C448.722,494.811,457.039,485.928,465.488,477.663z"/>
	<path id="path158" fill="#090909" d="M174.61,467.423c3.156-2.353,7.525-2.014,11.226-1.356
		c13.076,3.63,25.783,9.479,36.012,18.546c-7.032-1.038-17.487-5.037-21.897,2.806c1.367,6.938,7.494,11.688,11.103,17.517
		c-13.148-7.124-27.428-14.503-35.734-27.458C173.891,474.569,171.093,469.809,174.61,467.423z"/>
	<path id="path160" fill="#090909" d="M136.728,472.626c16.428,2.939,30.11,14.619,39.178,28.158
		c-4.965,0.544-11.185,1.993-14.773-2.663c-2.95-4.411-5.161-9.273-8.348-13.517C148.456,479.36,142.267,476.358,136.728,472.626z"
		/>
	<path id="path162" fill="#090909" d="M154.963,472.78c5.541,1.909,11.236,3.772,16.181,6.979c3.752,3.668,6.291,8.387,9.232,12.705
		c-5.531-1.748-11.216-3.567-15.863-7.155C161.04,481.364,157.853,477.169,154.963,472.78z"/>
	<path id="path164" fill="#090909" d="M366.439,491.664c8.192-8.521,18.699-14.422,29.35-19.338
		c-3.926,6.363-8.399,12.664-8.675,20.467c8.593,1.52,17.363,1.284,26.05,1.162c-9.714,9.437-23.397,14.31-36.803,14.714
		c-4.308-0.412-9.581-1.247-12.01-5.287C361.978,499.663,363.56,494.626,366.439,491.664z"/>
	<path id="path166" fill="#090909" d="M422.28,490.082c6.745-0.803,13.57-1.854,19.749-4.813c-3.495,4.369-6.601,9.025-9.663,13.726
		c-1.964,2.897-4.153,6.238-8.266,6.126c-4.688,1.255-9.334,2.612-14.043,3.763C414.664,502.973,418.848,496.744,422.28,490.082z"/>
	<path id="path168" fill="#090909" d="M212.297,488.683c14.69-1.346,30.388-0.268,43.413,7.33
		c-5.86,1.296-11.843,2.047-17.702,3.363c-0.277,2.376-1.84,5.118-0.35,7.331c3.968,5.397,9.314,9.56,14.413,13.836
		c-11.555-3.353-22.411-8.891-32.732-14.998c-4.482-3.137-9.941-6.447-11.319-12.162C208.268,491.1,210.005,489.084,212.297,488.683
		z"/>
	<path id="path170" fill="#090909" d="M332.483,503.98c7.628-8.86,19.348-12.314,30.39-14.547
		c-3.177,4.369-6.745,8.503-9.059,13.437c-0.041,3.855,4.185,5.11,7.237,5.829c6.857,1.297,13.85,1.799,20.726,3.063
		c-11.638,2.89-22.936,8.04-35.2,7.443c-5.283-0.312-11.471,0.841-16.026-2.582C327.261,512.873,329.574,507.219,332.483,503.98z"/>
	<path id="path172" fill="#090909" d="M290.261,514.188c12.891-10.116,29.33-14.176,45.378-15.513
		c-6.323,4.905-15.729,7.628-17.815,16.264c9.572,4.626,20.128,6.075,30.295,8.769c-15.081,3.476-30.892,3.546-46.106,0.955
		c-4.688-0.821-9.242-2.774-12.942-5.746C288.946,517.282,288.577,515.145,290.261,514.188z"/>
	<path id="path174" fill="#090909" d="M244.762,507.608c14.855-10.659,34.778-8.883,51.68-4.862
		c-7.391,2.087-15.586,4.143-19.604,11.297c4.863,6.168,11.853,9.623,18.669,13.14C277.402,525.517,257.099,522.515,244.762,507.608
		z"/>
	<path id="path176" fill="#090909" d="M194.173,503.477c4.708,0.679,9.386,1.634,13.93,3.096c3.238,2.787,5.757,6.354,8.512,9.632
		C207.115,516.563,200.444,509.5,194.173,503.477z"/>
	<path id="path178" fill="#090909" d="M386.146,512.563c6.023-0.491,12.038-1.272,18.031-2.126
		c-5.058,5.285-9.129,11.636-14.928,16.121c-7.104,1.099-14.392,0.719-21.559,1.407C373.902,522.916,380.8,518.609,386.146,512.563z
		"/>
	<path id="path180" fill="#090909" d="M229.917,519.236c5.644,0.349,11.288,1.027,16.818,2.272c3.516,1.438,6.168,4.369,9.037,6.774
		C245.791,530.39,237.433,524.808,229.917,519.236z"/>
	<path id="path182" fill="#090909" d="M204.392,527.563c8.831-1.554,18-3.031,26.894-1.007c8.728,1.612,16.695,5.734,24.765,9.24
		c-0.103,0.639-0.298,1.911-0.401,2.548c-4.821,0.154-9.828,1.308-14.567-0.133c-6.991-2.056-12.614-7.33-19.81-8.83
		C215.689,528.386,210.005,528.149,204.392,527.563z"/>
	<path id="path184" fill="#090909" d="M323.508,536.136c5.901-2.795,11.751-5.798,17.898-7.967
		c6.619,0.112,13.219,0.936,19.859,0.813c-7.072,3.925-13.825,8.521-20.961,12.224C334.508,540.403,329.019,538.069,323.508,536.136
		z"/>
	<path id="path186" fill="#090909" d="M279.097,532.116c6.333-0.738,13.448-5.162,19.359-1.068c4.379,2.386,8.716,4.884,12.839,7.7
		c-6.023,0.576-11.956,2.334-18.033,2.304C287.888,539.375,283.601,535.355,279.097,532.116z"/>
	<path id="path188" fill="#090909" d="M350.236,543.303c14.445-7.454,30.521-10.723,46.344-13.767
		c-3.445,4.833-6.343,10.415-10.928,14.228c-8.246,1.585-16.851,0.093-25.157,1.532c-8.225,0.731-15.256,5.265-22.462,8.809
		C341.54,549.944,345.467,545.984,350.236,543.303z"/>
	<path id="path190" fill="#090909" d="M246.551,542.14c8.451-1.983,17.086-3.681,25.834-3.114c8.234,0.494,15.935,3.641,23.521,6.6
		c-3.845,2.087-7.771,4.342-12.161,4.966c-3.927-0.192-7.31-2.673-10.877-4.03C264.768,542.479,255.464,541.813,246.551,542.14z"/>
	<path id="path192" fill="#090909" d="M287.239,554.641c15.72-10.66,36.64-12.489,54.825-8.706
		c-4.533,2.62-8.604,6.967-14.053,7.573c-6.497-0.748-12.687-3.544-19.328-3.276C301.346,550.653,294.385,553.161,287.239,554.641z"
		/>
</g>
</svg>
